<svg width="19" height="14" viewBox="0 0 19 14" fill="none" xmlns="http://www.w3.org/2000/svg">
<path d="M9.33333 10C10.1667 10 10.875 9.70833 11.4583 9.125C12.0417 8.54167 12.3333 7.83333 12.3333 7C12.3333 6.16667 12.0417 5.45833 11.4583 4.875C10.875 4.29167 10.1667 4 9.33333 4C8.5 4 7.79167 4.29167 7.20833 4.875C6.625 5.45833 6.33333 6.16667 6.33333 7C6.33333 7.83333 6.625 8.54167 7.20833 9.125C7.79167 9.70833 8.5 10 9.33333 10ZM9.33333 8.8C8.83333 8.8 8.40833 8.625 8.05833 8.275C7.70833 7.925 7.53333 7.5 7.53333 7C7.53333 6.5 7.70833 6.075 8.05833 5.725C8.40833 5.375 8.83333 5.2 9.33333 5.2C9.83333 5.2 10.2583 5.375 10.6083 5.725C10.9583 6.075 11.1333 6.5 11.1333 7C11.1333 7.5 10.9583 7.925 10.6083 8.275C10.2583 8.625 9.83333 8.8 9.33333 8.8ZM9.33333 12C7.71111 12 6.23333 11.5472 4.9 10.6417C3.56667 9.73611 2.6 8.52222 2 7C2.6 5.47778 3.56667 4.26389 4.9 3.35833C6.23333 2.45278 7.71111 2 9.33333 2C10.9556 2 12.4333 2.45278 13.7667 3.35833C15.1 4.26389 16.0667 5.47778 16.6667 7C16.0667 8.52222 15.1 9.73611 13.7667 10.6417C12.4333 11.5472 10.9556 12 9.33333 12ZM9.33333 10.6667C10.5889 10.6667 11.7417 10.3361 12.7917 9.675C13.8417 9.01389 14.6444 8.12222 15.2 7C14.6444 5.87778 13.8417 4.98611 12.7917 4.325C11.7417 3.66389 10.5889 3.33333 9.33333 3.33333C8.07778 3.33333 6.925 3.66389 5.875 4.325C4.825 4.98611 4.02222 5.87778 3.46667 7C4.02222 8.12222 4.825 9.01389 5.875 9.675C6.925 10.3361 8.07778 10.6667 9.33333 10.6667Z" fill="#7386A1"/>
</svg>
